# Blender v2.78 (sub 0) OBJ File: 'cube.blend'
# www.blender.org
mtllib cube.mtl
o Cube
v 1.000000 -1.000000 -1.000000
v 1.000000 -1.000000 1.000000
v -1.000000 -1.000000 1.000000
v -1.000000 -1.000000 -1.000000
v 1.000000 1.000000 -0.999999
v 0.999999 1.000000 1.000001
v -1.000000 1.000000 1.000000
v -1.000000 1.000000 -1.000000
vt 0.7500 0.3750
vt 0.9999 0.3750
vt 0.9999 0.6250
vt 0.7500 0.6250
vt 0.5000 0.3750
vt 0.5000 0.6250
vt 0.2501 0.6250
vt 0.2501 0.3750
vt 0.5000 0.1251
vt 0.2501 0.1251
vt 0.0001 0.3750
vt 0.0001 0.6250
vt 0.2501 0.8749
vt 0.5000 0.8749
vn 0.0000 -1.0000 0.0000
vn 0.0000 1.0000 0.0000
vn 1.0000 0.0000 0.0000
vn -0.0000 -0.0000 1.0000
vn -1.0000 -0.0000 -0.0000
vn 0.0000 0.0000 -1.0000
usemtl Material
s off
f 1/1/1 2/2/1 3/3/1 4/4/1
f 5/5/2 8/6/2 7/7/2 6/8/2
f 1/9/3 5/5/3 6/8/3 2/10/3
f 2/11/4 6/8/4 7/7/4 3/12/4
f 3/13/5 7/7/5 8/6/5 4/14/5
f 5/5/6 1/1/6 4/4/6 8/6/6
